<?xml version="1.0" encoding="UTF-8" standalone="no"?>
<svg xmlnsDc="http://purl.org/dc/elements/1.1/" xmlnsCc="http://creativecommons.org/ns#" xmlnsRdf="http://www.w3.org/1999/02/22-rdf-syntax-ns#" xmlnsSvg="http://www.w3.org/2000/svg" xmlns="http://www.w3.org/2000/svg" xmlnsSodipodi="http://sodipodi.sourceforge.net/DTD/sodipodi-0.dtd" xmlnsInkscape="http://www.inkscape.org/namespaces/inkscape" version="1.1" id="svg2" xmlSpace="preserve" width="500" height="100" viewBox="0 0 335 35" sodipodiDocname="DPT_therapy_v4-01.eps">
  <metadata id="metadata8">
    <rdfRDF>
      <ccWork rdfAbout="">
        <dcFormat>image/svg+xml</dcFormat>
        <dcType rdfResource="http://purl.org/dc/dcmitype/StillImage" />
      </ccWork>
    </rdfRDF>
  </metadata>
  <defs id="defs6" />
  <sodipodiNamedview pagecolor="#ffffff" bordercolor="#666666" borderopacity="1" objecttolerance="10" gridtolerance="10" guidetolerance="10" inkscapePageopacity="0" inkscapePageshadow="2" inkscapeWindow-width="640" inkscapeWindow-height="480" id="namedview4" />
  <g id="g10" inkscapeGroupmode="layer" inkscapeLabel="ink_ext_XXXXXX" transform="matrix(1.3333333,0,0,-1.3333333,0,126.25333)">
    <g id="g12" transform="scale(0.1)">
      <path d="m 67.64,846.137 h 9.83 c 7.11,0 12.05,1.562 14.8,4.683 2.75,3.125 4.53,8.676 5.33,16.657 0.31,3.027 0.47,5.714 0.47,8.07 0,1.484 -0.07,2.875 -0.19,4.176 -0.31,3.273 -1.7,5.734 -4.18,7.375 -2.47,1.636 -6.37,2.457 -11.68,2.457 h -9.84 z m -40.08,-88.785 16.14,153.82 h 47.41 c 23.87,0 35.81,-11.781 35.81,-35.348 0,-2.722 -0.16,-5.629 -0.47,-8.719 -0.87,-7.859 -2.61,-14.582 -5.24,-20.183 -2.63,-5.594 -6.06,-9.984 -10.3,-13.172 -4.23,-3.184 -8.93,-5.488 -14.1,-6.91 -5.16,-1.426 -10.99,-2.133 -17.49,-2.133 h -13.91 l -7.14,-67.355 h -30.71" style="fill:currentColor;fill-opacity:1;fill-rule:nonzero;stroke:none" id="path26" />
      <path d="m 128.59,757.352 16.14,153.82 h 28.2 l -5.66,-54.18 c 9.15,7.977 18.62,11.969 28.39,11.969 6.31,0 10.79,-2.32 13.45,-6.961 2.1,-3.652 3.16,-8.012 3.16,-13.078 0,-1.426 -0.09,-2.91 -0.28,-4.453 l -9.09,-87.117 h -28.2 l 8.53,81.828 c 0.12,0.984 0.19,1.914 0.19,2.781 0,1.855 -0.28,3.277 -0.84,4.269 -0.8,1.485 -2.5,2.192 -5.1,2.133 -2.97,0 -6.84,-1.578 -11.6,-4.73 l -9.09,-86.281 h -28.2" style="fill:currentColor;fill-opacity:1;fill-rule:nonzero;stroke:none" id="path28" />
      <path d="m 218.51,726.828 2.13,19.949 c 7.36,0 12.4,0.743 15.12,2.227 2.54,1.363 3.81,4.144 3.81,8.348 0,0.308 0,0.586 0,0.836 -0.07,2.535 -0.75,8.07 -2.05,16.605 l -14.84,92.402 h 27.09 l 6.59,-68.187 18.27,68.187 h 27.19 l -38.13,-115.687 c -1.55,-4.695 -3.67,-8.688 -6.36,-11.969 -2.69,-3.273 -5.89,-5.828 -9.6,-7.656 -3.71,-1.82 -7.62,-3.117 -11.74,-3.895 -4.11,-0.773 -8.71,-1.16 -13.77,-1.16 h -3.71" style="fill:currentColor;fill-opacity:1;fill-rule:nonzero;stroke:none" id="path30" />
      <path d="m 332.87,755.496 c -18.24,0 -29.28,9.559 -33.12,28.668 l 21.34,8.164 c 1.12,-5.629 2.84,-9.961 5.2,-12.988 2.16,-2.848 4.85,-4.266 8.07,-4.266 0.18,0 0.37,0 0.56,0 2.41,0.121 4.48,1.02 6.21,2.688 1.86,1.793 2.75,3.926 2.69,6.402 0,3.399 -3.62,8.5 -10.85,15.309 l -10.86,10.203 c -9.34,8.722 -14.01,17.535 -14.01,26.441 0,1.113 0.06,2.227 0.19,3.34 1.05,8.781 4.93,15.895 11.64,21.34 6.71,5.437 14.61,8.164 23.71,8.164 8.78,0 15.73,-2.52 20.87,-7.566 5.13,-5.04 8.22,-11.981 9.28,-20.825 l -19.3,-8.164 c -0.62,4.641 -1.87,8.535 -3.76,11.692 -1.88,3.152 -4.44,4.789 -7.65,4.914 -0.13,0 -0.22,0 -0.28,0 -2.47,0 -4.52,-0.742 -6.12,-2.227 -1.74,-1.484 -2.69,-3.308 -2.88,-5.472 -0.18,-1.364 0.25,-2.954 1.3,-4.782 1.05,-1.82 2.23,-3.426 3.53,-4.824 1.3,-1.387 3.09,-3.168 5.38,-5.332 l 10.85,-10.852 c 2.04,-1.984 3.66,-3.605 4.87,-4.871 1.21,-1.269 2.61,-2.968 4.22,-5.105 1.61,-2.129 2.82,-4.141 3.62,-6.027 0.8,-1.887 1.45,-4.102 1.95,-6.633 0.31,-1.551 0.46,-3.125 0.46,-4.735 0,-0.988 -0.06,-2.011 -0.18,-3.058 -0.99,-9.278 -5,-16.531 -12.02,-21.754 -7.01,-5.231 -15.32,-7.844 -24.91,-7.844" style="fill:currentColor;fill-opacity:1;fill-rule:nonzero;stroke:none" id="path32" />
      <path d="m 394.38,885.102 2.32,21.8 h 28.3 l -2.32,-21.8 z m -13.36,-127.75 11.51,109.843 h 28.2 l -11.5,-109.843 h -28.21" style="fill:currentColor;fill-opacity:1;fill-rule:nonzero;stroke:none" id="path34" />
      <path d="m 463.22,755.496 c -12.31,0 -21.09,3.399 -26.35,10.207 -4.21,5.379 -6.3,12.582 -6.3,21.617 0,2.348 0.15,4.789 0.46,7.328 l 3.71,35.348 c 1.3,12.488 5.29,22.109 11.97,28.852 6.68,6.738 16.14,10.113 28.39,10.113 11.81,0.059 20.31,-2.691 25.51,-8.258 4.27,-4.515 6.37,-10.949 6.31,-19.297 0,-1.855 -0.1,-3.84 -0.28,-5.937 l -1.11,-10.114 h -26.72 l 1.11,10.762 c 0.19,1.606 0.28,3.028 0.28,4.27 0,2.718 -0.37,4.73 -1.11,6.027 -1.06,1.914 -3.01,2.879 -5.85,2.879 -3.09,0 -5.37,-1.16 -6.82,-3.484 -1.45,-2.313 -2.49,-6.481 -3.11,-12.473 l -4.45,-42.492 c -0.25,-2.227 -0.37,-4.176 -0.37,-5.844 0,-2.848 0.34,-4.953 1.02,-6.309 1.05,-2.105 3.06,-3.168 6.03,-3.203 2.97,-0.031 5.15,0.977 6.54,3.016 1.39,2.043 2.33,5.254 2.83,9.648 l 1.3,12.989 h 26.81 l -1.2,-11.688 c -1.25,-11.195 -5.09,-19.652 -11.55,-25.371 -6.47,-5.723 -15.49,-8.586 -27.05,-8.586" style="fill:currentColor;fill-opacity:1;fill-rule:nonzero;stroke:none" id="path36" />
      <path d="m 549.41,776.188 c 1.72,0 3.54,0.632 5.43,1.898 1.88,1.269 3.47,2.676 4.77,4.223 l 3.15,30.058 c -5.44,-2.722 -10.12,-6.215 -14.05,-10.484 -3.93,-4.266 -6.17,-8.719 -6.73,-13.36 -0.06,-0.804 -0.09,-1.574 -0.09,-2.32 0.06,-2.66 0.59,-4.887 1.58,-6.676 1.36,-2.226 3.34,-3.339 5.94,-3.339 z m -12.71,-20.692 c -4.89,0.067 -9.13,1.426 -12.71,4.082 -3.47,2.656 -5.94,5.969 -7.43,9.93 -1.11,3.027 -1.7,6.215 -1.76,9.555 0,0.984 0.06,1.976 0.19,2.968 0.3,2.84 0.86,5.551 1.67,8.114 0.8,2.57 1.71,4.875 2.74,6.914 1.01,2.043 2.36,4.019 4.03,5.937 1.67,1.914 3.21,3.555 4.64,4.918 1.42,1.359 3.29,2.77 5.61,4.223 2.32,1.453 4.25,2.609 5.8,3.476 1.54,0.867 3.65,1.887 6.31,3.063 2.65,1.172 4.71,2.043 6.16,2.597 1.46,0.555 3.58,1.344 6.36,2.368 2.78,1.015 4.73,1.746 5.85,2.179 l 1.02,9.926 c 0.18,1.543 0.28,2.934 0.28,4.176 -0.07,2.098 -0.35,3.769 -0.84,5.008 -0.87,1.98 -2.78,3 -5.75,3.062 -5.08,0 -8.07,-3.523 -9,-10.574 l -1.3,-7.422 -26.63,1.02 c 0.06,0.308 0.18,1.004 0.33,2.089 0.15,1.079 0.23,1.649 0.23,1.715 2.04,11.746 6.48,20.375 13.31,25.883 6.84,5.5 16.07,8.258 27.7,8.258 10.88,0 18.74,-2.969 23.56,-8.906 3.9,-4.825 5.81,-11.106 5.75,-18.836 0,-1.797 -0.09,-3.68 -0.28,-5.656 l -5.38,-50.657 c -0.62,-6.25 -0.92,-12.867 -0.92,-19.851 0,-2.539 0.03,-5.106 0.09,-7.703 h -25.33 c -0.68,7.98 -1.02,13.269 -1.02,15.867 -1.98,-5.012 -4.96,-9.219 -8.95,-12.617 -3.99,-3.399 -8.77,-5.106 -14.33,-5.106" style="fill:currentColor;fill-opacity:1;fill-rule:nonzero;stroke:none" id="path38" />
      <path d="m 604.61,757.352 16.14,153.82 h 28.2 l -16.14,-153.82 h -28.2" style="fill:currentColor;fill-opacity:1;fill-rule:nonzero;stroke:none" id="path40" />
      <path d="m 713.52,757.352 13.83,131.183 h -24.87 l 2.42,22.637 h 79.78 l -2.32,-22.637 h -24.3 l -13.83,-131.183 h -30.71" style="fill:currentColor;fill-opacity:1;fill-rule:nonzero;stroke:none" id="path42" />
      <path d="m 779.86,757.352 16.14,153.82 h 28.2 l -5.66,-54.18 c 9.15,7.977 18.62,11.969 28.39,11.969 6.31,0 10.79,-2.32 13.45,-6.961 2.1,-3.652 3.16,-8.012 3.16,-13.078 0,-1.426 -0.09,-2.91 -0.28,-4.453 l -9.09,-87.117 h -28.2 l 8.53,81.828 c 0.12,0.984 0.19,1.914 0.19,2.781 0,1.855 -0.28,3.277 -0.84,4.269 -0.8,1.485 -2.5,2.192 -5.1,2.133 -2.97,0 -6.84,-1.578 -11.6,-4.73 l -9.09,-86.281 h -28.2" style="fill:currentColor;fill-opacity:1;fill-rule:nonzero;stroke:none" id="path44" />
      <path d="m 906.03,824.336 h 17.16 l 1.12,10.762 c 0.12,1.484 0.18,2.812 0.18,3.988 0,2.785 -0.37,4.918 -1.11,6.402 -1.12,2.098 -3.23,3.168 -6.36,3.203 -3.12,0.028 -5.44,-1.164 -6.95,-3.574 -1.52,-2.414 -2.59,-6.652 -3.21,-12.711 z m 1.39,-68.84 c -12.37,0 -21.22,3.371 -26.53,10.113 -4.27,5.442 -6.37,12.805 -6.31,22.082 0,2.286 0.12,4.668 0.37,7.141 l 3.62,34.793 c 1.36,12.801 5.42,22.559 12.2,29.27 6.77,6.71 16.25,10.066 28.43,10.066 12.49,0 21.12,-3.406 25.89,-10.207 3.64,-5.258 5.47,-12.465 5.47,-21.617 0,-2.723 -0.16,-5.657 -0.46,-8.813 l -1.86,-17.625 h -43.7 l -1.85,-17.722 c -0.25,-2.969 -0.37,-5.629 -0.37,-7.977 0.06,-0.312 0.09,-0.59 0.09,-0.836 0,-2.539 0.57,-4.547 1.72,-6.031 1.14,-1.485 2.92,-2.227 5.33,-2.227 3.03,0 5.33,1.051 6.92,3.157 1.57,2.097 2.57,5.289 3.01,9.554 l 1.11,9.926 h 26.44 l -0.93,-8.535 c -1.17,-11.133 -5.07,-19.668 -11.69,-25.606 -6.62,-5.937 -15.58,-8.906 -26.9,-8.906" style="fill:currentColor;fill-opacity:1;fill-rule:nonzero;stroke:none" id="path46" />
      <path d="m 959.3,757.352 11.51,109.843 h 28.2 l -1.76,-17.441 c 8.1,12.555 16.29,18.836 24.58,18.836 1.11,0 2.47,-0.188 4.08,-0.559 l -2.87,-26.441 c -2.17,0.742 -4.36,1.113 -6.59,1.113 h -0.46 c -4.03,-0.125 -7.67,-1.144 -10.95,-3.058 -3.28,-1.922 -6.56,-4.954 -9.84,-9.094 l -7.7,-73.199 h -28.2" style="fill:currentColor;fill-opacity:1;fill-rule:nonzero;stroke:none" id="path48" />
      <path d="m 1061.8,776.188 c 1.72,0 3.54,0.632 5.43,1.898 1.88,1.269 3.47,2.676 4.77,4.223 l 3.15,30.058 c -5.44,-2.722 -10.12,-6.215 -14.05,-10.484 -3.93,-4.266 -6.17,-8.719 -6.73,-13.36 -0.06,-0.804 -0.09,-1.574 -0.09,-2.32 0.06,-2.66 0.59,-4.887 1.58,-6.676 1.36,-2.226 3.34,-3.339 5.94,-3.339 z m -12.71,-20.692 c -4.89,0.067 -9.13,1.426 -12.71,4.082 -3.47,2.656 -5.94,5.969 -7.43,9.93 -1.11,3.027 -1.7,6.215 -1.76,9.555 0,0.984 0.06,1.976 0.19,2.968 0.3,2.84 0.86,5.551 1.67,8.114 0.8,2.57 1.71,4.875 2.74,6.914 1.01,2.043 2.36,4.019 4.03,5.937 1.67,1.914 3.21,3.555 4.64,4.918 1.42,1.359 3.29,2.77 5.61,4.223 2.32,1.453 4.25,2.609 5.8,3.476 1.54,0.867 3.65,1.887 6.31,3.063 2.65,1.172 4.71,2.043 6.16,2.597 1.46,0.555 3.58,1.344 6.36,2.368 2.78,1.015 4.73,1.746 5.85,2.179 l 1.02,9.926 c 0.18,1.543 0.28,2.934 0.28,4.176 -0.07,2.098 -0.35,3.769 -0.84,5.008 -0.87,1.98 -2.78,3 -5.75,3.062 -5.08,0 -8.07,-3.523 -9,-10.574 l -1.3,-7.422 -26.63,1.02 c 0.06,0.308 0.18,1.004 0.33,2.089 0.15,1.079 0.23,1.649 0.23,1.715 2.04,11.746 6.48,20.375 13.31,25.883 6.84,5.5 16.07,8.258 27.7,8.258 10.88,0 18.74,-2.969 23.56,-8.906 3.9,-4.825 5.81,-11.106 5.75,-18.836 0,-1.797 -0.09,-3.68 -0.28,-5.656 l -5.38,-50.657 c -0.62,-6.25 -0.92,-12.867 -0.92,-19.851 0,-2.539 0.03,-5.106 0.09,-7.703 h -25.33 c -0.68,7.98 -1.02,13.269 -1.02,15.867 -1.98,-5.012 -4.96,-9.219 -8.95,-12.617 -3.99,-3.399 -8.77,-5.106 -14.33,-5.106" style="fill:currentColor;fill-opacity:1;fill-rule:nonzero;stroke:none" id="path50" />
      <path d="m 1155.59,774.887 c 2.23,0 4.1,0.82 5.61,2.457 1.52,1.64 2.6,3.633 3.25,5.984 0.65,2.352 1.16,5.195 1.53,8.535 l 4.55,43.7 c 0.18,1.605 0.27,3.089 0.27,4.453 0,7.05 -2.38,10.574 -7.14,10.574 -0.18,0 -0.37,0 -0.56,0 -2.91,-0.063 -6.25,-1.391 -10.02,-3.988 l -7.23,-68.559 c 3.15,-2.105 6.4,-3.156 9.74,-3.156 z m -43.88,-53.715 15.31,146.023 h 28.2 l -0.74,-8.254 c 7.79,6.68 15.55,10.02 23.28,10.02 h 0.65 c 3.03,-0.066 5.74,-0.602 8.12,-1.629 2.38,-1.016 4.31,-2.41 5.8,-4.168 1.48,-1.769 2.75,-3.793 3.8,-6.078 1.05,-2.293 1.76,-4.734 2.14,-7.332 0.37,-2.598 0.61,-5.258 0.74,-7.977 0,-0.683 0,-1.332 0,-1.949 0,-1.98 -0.13,-3.93 -0.37,-5.844 l -4.27,-40.914 c -1.18,-11.132 -4.22,-20.179 -9.14,-27.132 -4.91,-6.965 -11.58,-10.442 -19.99,-10.442 -7.18,0 -14.07,3.371 -20.69,10.113 l -4.64,-44.437 h -28.2" style="fill:currentColor;fill-opacity:1;fill-rule:nonzero;stroke:none" id="path52" />
      <path d="m 1206.15,726.828 2.13,19.949 c 7.36,0 12.4,0.743 15.13,2.227 2.53,1.363 3.8,4.144 3.8,8.348 0,0.308 0,0.586 0,0.836 -0.06,2.535 -0.74,8.07 -2.04,16.605 l -14.84,92.402 h 27.09 l 6.58,-68.187 18.28,68.187 h 27.18 l -38.13,-115.687 c -1.55,-4.695 -3.66,-8.688 -6.36,-11.969 -2.68,-3.273 -5.88,-5.828 -9.6,-7.656 -3.71,-1.82 -7.62,-3.117 -11.73,-3.895 -4.11,-0.773 -8.71,-1.16 -13.78,-1.16 h -3.71" style="fill:currentColor;fill-opacity:1;fill-rule:nonzero;stroke:none" id="path54" />
      <path d="m 1383.68,849.199 c 3.15,4.453 6.29,9.91 9.41,16.375 3.12,6.461 4.97,12.164 5.52,17.117 0.06,0.493 0.09,0.957 0.09,1.391 0,2.348 -0.68,4.266 -2.04,5.75 -1.61,1.793 -3.77,2.691 -6.49,2.691 -2.91,0 -5.33,-1.207 -7.29,-3.617 -1.94,-2.414 -3.07,-5.445 -3.38,-9.093 -0.06,-2.598 -0.09,-4.731 -0.09,-6.399 0,-1.672 0.23,-3.914 0.69,-6.726 0.47,-2.817 0.87,-5.028 1.21,-6.633 0.34,-1.614 0.77,-3.621 1.3,-6.032 0.52,-2.414 0.88,-4.023 1.07,-4.824 z m -10.67,-73.847 c 6.36,0 11.87,2.718 16.51,8.164 -9.46,21.394 -14.44,32.992 -14.94,34.789 -6.18,-8.227 -9.77,-16.883 -10.76,-25.977 -0.13,-1.113 -0.18,-2.195 -0.18,-3.246 0,-3.59 0.68,-6.586 2.04,-9 1.73,-3.152 4.17,-4.73 7.33,-4.73 z m -2.51,-20.133 c -10.33,0.062 -18.31,3.371 -23.93,9.926 -4.71,5.503 -7.05,12.371 -7.05,20.597 0,1.606 0.09,3.305 0.27,5.102 0.93,8.906 3.9,17.441 8.91,25.605 5.01,8.164 10.95,15.215 17.81,21.153 -0.8,2.043 -2.17,5.289 -4.08,9.742 -1.92,4.453 -3.37,7.976 -4.36,10.574 -0.93,2.473 -1.76,5.691 -2.5,9.648 -0.5,2.598 -0.75,5.133 -0.75,7.61 0,1.234 0.06,2.441 0.19,3.617 1.05,9.895 4.9,18.105 11.55,24.633 6.65,6.523 14.95,9.785 24.91,9.785 9.77,0 17.56,-2.844 23.38,-8.535 4.94,-4.887 7.42,-11.196 7.42,-18.926 0,-1.297 -0.06,-2.66 -0.19,-4.082 -0.25,-2.289 -0.65,-4.543 -1.2,-6.77 -0.56,-2.226 -1.35,-4.425 -2.37,-6.589 -1.02,-2.168 -1.98,-4.114 -2.87,-5.844 -0.9,-1.735 -2.17,-3.633 -3.81,-5.707 -1.64,-2.07 -2.95,-3.742 -3.94,-5.012 -0.99,-1.262 -2.48,-2.918 -4.45,-4.961 -1.99,-2.039 -3.41,-3.496 -4.27,-4.359 -0.87,-0.867 -2.38,-2.305 -4.55,-4.313 -2.17,-2.011 -3.52,-3.293 -4.08,-3.851 l 15.4,-33.399 c 1.73,2.844 3.43,7.25 5.1,13.219 1.67,5.973 2.97,11.859 3.9,17.676 h 21.52 c -1.79,-16.641 -7.57,-32.32 -17.35,-47.035 1.12,-1.672 2.84,-3.141 5.15,-4.41 2.33,-1.266 4.72,-1.965 7.19,-2.086 l -2.41,-22.821 c -1.98,-0.371 -3.47,-0.558 -4.45,-0.558 -1.43,0 -2.78,0.129 -4.08,0.371 -1.3,0.25 -2.62,0.742 -3.94,1.484 -1.34,0.742 -2.44,1.344 -3.3,1.813 -0.87,0.457 -1.98,1.308 -3.34,2.547 -1.36,1.238 -2.26,2.058 -2.69,2.46 -0.43,0.403 -1.38,1.375 -2.83,2.922 -1.45,1.543 -2.24,2.379 -2.37,2.504 -3.83,-4.332 -8.48,-7.699 -13.96,-10.113 -5.47,-2.41 -11.33,-3.617 -17.58,-3.617" style="fill:currentColor;fill-opacity:1;fill-rule:nonzero;stroke:none" id="path56" />
      <path d="m 1533.97,846.137 h 9.83 c 7.11,0 12.05,1.562 14.8,4.683 2.75,3.125 4.53,8.676 5.33,16.657 0.31,3.027 0.47,5.714 0.47,8.07 0,1.484 -0.07,2.875 -0.19,4.176 -0.31,3.273 -1.7,5.734 -4.17,7.375 -2.48,1.636 -6.37,2.457 -11.69,2.457 h -9.84 z m -40.08,-88.785 16.14,153.82 h 47.41 c 23.87,0 35.81,-11.781 35.81,-35.348 0,-2.722 -0.16,-5.629 -0.46,-8.719 -0.87,-7.859 -2.62,-14.582 -5.24,-20.183 -2.63,-5.594 -6.07,-9.984 -10.31,-13.172 -4.23,-3.184 -8.93,-5.488 -14.1,-6.91 -5.16,-1.426 -10.99,-2.133 -17.48,-2.133 h -13.92 l -7.14,-67.355 h -30.71" style="fill:currentColor;fill-opacity:1;fill-rule:nonzero;stroke:none" id="path58" />
      <path d="m 1627.11,824.336 h 17.17 l 1.11,10.762 c 0.12,1.484 0.18,2.812 0.18,3.988 0,2.785 -0.37,4.918 -1.11,6.402 -1.11,2.098 -3.23,3.168 -6.36,3.203 -3.12,0.028 -5.44,-1.164 -6.95,-3.574 -1.52,-2.414 -2.59,-6.652 -3.2,-12.711 z m 1.39,-68.84 c -12.37,0 -21.21,3.371 -26.53,10.113 -4.27,5.442 -6.37,12.805 -6.31,22.082 0,2.286 0.12,4.668 0.37,7.141 l 3.62,34.793 c 1.36,12.801 5.43,22.559 12.2,29.27 6.77,6.71 16.25,10.066 28.44,10.066 12.49,0 21.11,-3.406 25.88,-10.207 3.65,-5.258 5.47,-12.465 5.47,-21.617 0,-2.723 -0.15,-5.657 -0.46,-8.813 l -1.86,-17.625 h -43.69 l -1.86,-17.722 c -0.25,-2.969 -0.37,-5.629 -0.37,-7.977 0.06,-0.312 0.09,-0.59 0.09,-0.836 0,-2.539 0.58,-4.547 1.72,-6.031 1.15,-1.485 2.92,-2.227 5.34,-2.227 3.02,0 5.33,1.051 6.91,3.157 1.57,2.097 2.58,5.289 3.01,9.554 l 1.12,9.926 h 26.44 l -0.93,-8.535 c -1.18,-11.133 -5.08,-19.668 -11.69,-25.606 -6.62,-5.937 -15.59,-8.906 -26.91,-8.906" style="fill:currentColor;fill-opacity:1;fill-rule:nonzero;stroke:none" id="path60" />
      <path d="m 1681.39,757.352 11.5,109.843 h 28.2 l -1.76,-17.441 c 8.1,12.555 16.29,18.836 24.58,18.836 1.12,0 2.48,-0.188 4.09,-0.559 l -2.88,-26.441 c -2.17,0.742 -4.36,1.113 -6.59,1.113 h -0.46 c -4.02,-0.125 -7.67,-1.144 -10.95,-3.058 -3.28,-1.922 -6.55,-4.954 -9.83,-9.094 l -7.7,-73.199 h -28.2" style="fill:currentColor;fill-opacity:1;fill-rule:nonzero;stroke:none" id="path62" />
      <path d="m 1753.84,757.352 9.46,90.269 h -11.22 l 1.95,19.574 h 11.32 l 0.74,6.68 c 0.43,4.453 0.98,8.215 1.67,11.27 0.68,3.066 1.75,6.066 3.2,9.003 1.45,2.938 3.31,5.27 5.57,7.004 2.25,1.727 5.17,3.121 8.76,4.176 3.59,1.047 7.82,1.574 12.71,1.574 3.65,0 8.44,-0.339 14.38,-1.019 l -2.23,-20.965 c -4.33,0.613 -6.58,0.926 -6.77,0.926 -5.26,0 -8.25,-3.375 -9,-10.114 l -0.92,-8.535 h 14.75 l -1.95,-19.574 h -14.75 l -9.56,-90.269 h -28.11" style="fill:currentColor;fill-opacity:1;fill-rule:nonzero;stroke:none" id="path64" />
      <path d="m 1844.3,774.98 c 3.52,0 6.01,1.356 7.46,4.083 1.46,2.718 2.46,6.707 3.02,11.968 l 4.45,42.489 c 0.19,2.043 0.28,3.863 0.28,5.472 -0.06,2.598 -0.34,4.762 -0.83,6.496 -0.87,2.719 -3.04,4.098 -6.5,4.129 -3.47,0.031 -5.92,-1.347 -7.37,-4.129 -1.46,-2.785 -2.46,-6.773 -3.02,-11.968 l -4.45,-42.489 c -0.19,-2.414 -0.28,-4.64 -0.28,-6.679 0,-0.438 0,-0.899 0,-1.395 0.06,-2.352 0.7,-4.266 1.9,-5.75 1.21,-1.484 2.98,-2.227 5.34,-2.227 z m 26.25,-9.785 c -6.99,-6.465 -16.42,-9.699 -28.3,-9.699 -11.87,0 -20.59,3.215 -26.16,9.649 -4.51,5.253 -6.77,12.339 -6.77,21.246 0,2.101 0.12,4.297 0.37,6.586 l 3.99,38.593 c 1.24,12 5.32,21.231 12.25,27.696 6.92,6.461 16.32,9.695 28.2,9.695 11.93,0 20.72,-3.219 26.35,-9.648 4.57,-5.196 6.86,-12.282 6.86,-21.247 0,-2.043 -0.12,-4.211 -0.37,-6.496 l -3.99,-38.593 c -1.3,-12.059 -5.44,-21.321 -12.43,-27.782" style="fill:currentColor;fill-opacity:1;fill-rule:nonzero;stroke:none" id="path66" />
      <path d="m 1897.08,757.352 11.51,109.843 h 28.2 l -1.76,-17.441 c 8.1,12.555 16.29,18.836 24.58,18.836 1.12,0 2.47,-0.188 4.08,-0.559 l -2.87,-26.441 c -2.17,0.742 -4.36,1.113 -6.59,1.113 h -0.46 c -4.03,-0.125 -7.67,-1.144 -10.95,-3.058 -3.28,-1.922 -6.56,-4.954 -9.83,-9.094 l -7.7,-73.199 h -28.21" style="fill:currentColor;fill-opacity:1;fill-rule:nonzero;stroke:none" id="path68" />
      <path d="m 1964.72,757.352 11.5,109.843 h 28.11 l -0.93,-9.367 c 8.84,7.422 18.06,11.133 27.65,11.133 8.53,0 13.82,-4.305 15.86,-12.898 9.34,8.593 19.17,12.898 29.5,12.898 6.37,0 10.89,-2.32 13.55,-6.961 2.1,-3.652 3.15,-8.012 3.15,-13.078 0,-1.426 -0.09,-2.91 -0.27,-4.453 l -9.19,-87.117 h -28.11 l 8.63,81.828 c 0.06,0.863 0.09,1.668 0.09,2.41 0,1.98 -0.28,3.527 -0.83,4.64 -0.81,1.485 -2.51,2.192 -5.11,2.133 -3.03,0 -6.68,-1.363 -10.94,-4.082 0,-0.062 -0.04,-0.25 -0.1,-0.554 v -0.465 l -9.09,-85.91 h -27.92 l 8.53,81.828 c 0.12,0.925 0.19,1.793 0.19,2.597 0.06,1.793 -0.22,3.246 -0.84,4.36 -0.8,1.484 -2.47,2.226 -5.01,2.226 -0.12,0 -0.22,0 -0.28,0 -2.91,0 -6.52,-1.39 -10.85,-4.175 l -9.18,-86.836 h -28.11" style="fill:currentColor;fill-opacity:1;fill-rule:nonzero;stroke:none" id="path70" />
      <path d="m 2137,776.188 c 1.72,0 3.54,0.632 5.43,1.898 1.88,1.269 3.47,2.676 4.77,4.223 l 3.16,30.058 c -5.45,-2.722 -10.13,-6.215 -14.06,-10.484 -3.93,-4.266 -6.17,-8.719 -6.73,-13.36 -0.06,-0.804 -0.09,-1.574 -0.09,-2.316 0.06,-2.664 0.59,-4.891 1.58,-6.68 1.36,-2.226 3.34,-3.339 5.94,-3.339 z m -12.71,-20.692 c -4.89,0.067 -9.13,1.426 -12.71,4.082 -3.47,2.656 -5.94,5.969 -7.43,9.93 -1.11,3.027 -1.7,6.215 -1.76,9.555 0,0.984 0.06,1.976 0.19,2.968 0.3,2.84 0.86,5.551 1.67,8.114 0.8,2.57 1.71,4.875 2.74,6.914 1.01,2.043 2.36,4.019 4.03,5.937 1.67,1.914 3.21,3.555 4.64,4.918 1.42,1.359 3.29,2.77 5.61,4.223 2.32,1.453 4.25,2.609 5.8,3.476 1.54,0.867 3.65,1.887 6.31,3.063 2.65,1.172 4.71,2.043 6.16,2.597 1.46,0.559 3.58,1.344 6.36,2.368 2.79,1.015 4.73,1.746 5.85,2.179 l 1.02,9.926 c 0.18,1.543 0.28,2.934 0.28,4.176 -0.07,2.098 -0.35,3.769 -0.84,5.008 -0.87,1.98 -2.78,3 -5.75,3.062 -5.07,0 -8.07,-3.523 -9,-10.574 l -1.3,-7.422 -26.63,1.02 c 0.06,0.308 0.18,1.004 0.33,2.089 0.15,1.079 0.23,1.649 0.23,1.715 2.04,11.746 6.48,20.375 13.31,25.883 6.84,5.504 16.07,8.258 27.7,8.258 10.88,0 18.74,-2.969 23.56,-8.906 3.9,-4.825 5.81,-11.106 5.75,-18.836 0,-1.797 -0.09,-3.68 -0.27,-5.656 l -5.39,-50.657 c -0.62,-6.25 -0.92,-12.867 -0.92,-19.851 0,-2.539 0.03,-5.106 0.09,-7.703 h -25.33 c -0.68,7.98 -1.02,13.269 -1.02,15.867 -1.98,-5.012 -4.96,-9.219 -8.95,-12.617 -3.99,-3.399 -8.77,-5.106 -14.33,-5.106" style="fill:currentColor;fill-opacity:1;fill-rule:nonzero;stroke:none" id="path72" />
      <path d="m 2190.71,757.352 11.51,109.843 h 28.2 l -1.11,-10.851 c 9.77,8.406 19.14,12.617 28.11,12.617 6.3,0 10.79,-2.32 13.45,-6.961 2.1,-3.652 3.15,-8.012 3.15,-13.078 0,-1.426 -0.09,-2.91 -0.28,-4.453 l -9.09,-87.117 h -28.2 l 8.53,81.828 c 0.13,0.984 0.19,1.914 0.19,2.781 0,1.855 -0.28,3.277 -0.84,4.269 -0.8,1.485 -2.5,2.192 -5.1,2.133 -2.97,0 -6.71,-1.484 -11.22,-4.453 l -9.1,-86.558 h -28.2" style="fill:currentColor;fill-opacity:1;fill-rule:nonzero;stroke:none" id="path74" />
      <path d="m 2317.63,755.496 c -12.31,0 -21.1,3.399 -26.35,10.207 -4.21,5.379 -6.31,12.582 -6.31,21.617 0,2.348 0.15,4.789 0.46,7.328 l 3.71,35.348 c 1.3,12.488 5.29,22.109 11.97,28.852 6.68,6.738 16.14,10.113 28.39,10.113 11.81,0.059 20.32,-2.691 25.51,-8.258 4.27,-4.515 6.37,-10.949 6.31,-19.297 0,-1.855 -0.09,-3.84 -0.28,-5.937 l -1.11,-10.114 h -26.72 l 1.11,10.762 c 0.19,1.606 0.28,3.028 0.28,4.27 0,2.718 -0.37,4.73 -1.11,6.027 -1.05,1.914 -3,2.879 -5.84,2.879 -3.1,0 -5.37,-1.16 -6.83,-3.484 -1.45,-2.313 -2.49,-6.477 -3.1,-12.473 l -4.45,-42.492 c -0.25,-2.227 -0.38,-4.176 -0.38,-5.844 0,-2.848 0.34,-4.953 1.02,-6.309 1.05,-2.105 3.07,-3.168 6.03,-3.203 2.97,-0.031 5.15,0.977 6.55,3.016 1.38,2.043 2.33,5.254 2.83,9.648 l 1.29,12.989 h 26.82 l -1.21,-11.688 c -1.24,-11.195 -5.09,-19.652 -11.55,-25.371 -6.46,-5.723 -15.48,-8.586 -27.04,-8.586" style="fill:currentColor;fill-opacity:1;fill-rule:nonzero;stroke:none" id="path76" />
      <path d="m 2402.42,824.336 h 17.16 l 1.12,10.762 c 0.12,1.484 0.18,2.812 0.18,3.988 0,2.785 -0.37,4.918 -1.11,6.402 -1.11,2.098 -3.23,3.168 -6.36,3.203 -3.12,0.028 -5.44,-1.164 -6.95,-3.574 -1.52,-2.414 -2.59,-6.652 -3.2,-12.711 z m 1.39,-68.84 c -12.37,0 -21.21,3.371 -26.53,10.113 -4.27,5.442 -6.37,12.805 -6.31,22.082 0,2.286 0.12,4.668 0.37,7.141 l 3.62,34.793 c 1.36,12.801 5.42,22.559 12.2,29.27 6.77,6.71 16.25,10.066 28.43,10.066 12.49,0 21.12,-3.406 25.89,-10.207 3.65,-5.258 5.47,-12.465 5.47,-21.617 0,-2.723 -0.15,-5.657 -0.46,-8.813 l -1.86,-17.625 h -43.69 l -1.86,-17.722 c -0.25,-2.969 -0.37,-5.629 -0.37,-7.977 0.06,-0.312 0.09,-0.59 0.09,-0.836 0,-2.539 0.57,-4.547 1.72,-6.031 1.14,-1.485 2.92,-2.227 5.33,-2.227 3.03,0 5.34,1.051 6.92,3.157 1.57,2.097 2.58,5.289 3.01,9.554 l 1.11,9.926 h 26.44 l -0.92,-8.535 c -1.18,-11.133 -5.08,-19.668 -11.69,-25.606 -6.62,-5.937 -15.59,-8.906 -26.91,-8.906" style="fill:currentColor;fill-opacity:1;fill-rule:nonzero;stroke:none" id="path78" />
    </g>
  </g>
</svg>
