<?xml version="1.0" encoding="UTF-8" standalone="no"?>
<svg xmlnsDc="http://purl.org/dc/elements/1.1/" xmlnsCc="http://creativecommons.org/ns#" xmlnsRdf="http://www.w3.org/1999/02/22-rdf-syntax-ns#" xmlnsSvg="http://www.w3.org/2000/svg" xmlns="http://www.w3.org/2000/svg" xmlnsSodipodi="http://sodipodi.sourceforge.net/DTD/sodipodi-0.dtd" xmlnsInkscape="http://www.inkscape.org/namespaces/inkscape" version="1.1" id="svg2" xmlSpace="preserve" width="150" height="100" viewBox="0 0 378.86667 126.25333" sodipodiDocname="DPT_therapy_v4-01.eps">
  <metadata id="metadata8">
    <rdfRDF>
      <ccWork rdfAbout="">
        <dcFormat>image/svg+xml</dcFormat>
        <dcType rdfResource="http://purl.org/dc/dcmitype/StillImage" />
      </ccWork>
    </rdfRDF>
  </metadata>
  <defs id="defs6" />
  <sodipodiNamedview pagecolor="#ffffff" bordercolor="#666666" borderopacity="1" objecttolerance="10" gridtolerance="10" guidetolerance="10" inkscapePageopacity="0" inkscapePageshadow="2" inkscapeWindow-width="640" inkscapeWindow-height="480" id="namedview4" />
  <g id="g10" inkscapeGroupmode="layer" inkscapeLabel="ink_ext_XXXXXX" transform="matrix(1.3333333,0,0,-1.3333333,0,126.25333)">
    <g id="g12" transform="scale(0.1)">
      <path d="m 326.473,245.75 h 47.14 c 12.407,0 23.899,3.813 34.492,11.441 10.586,7.625 17.27,16.602 20.04,26.934 l 61.886,230.961 c 2.828,10.562 0.907,19.598 -5.765,27.109 -6.672,7.508 -16.075,11.266 -28.203,11.266 h -47.141 z m 178.136,39.785 c -7.8,-29.105 -26.461,-53.988 -55.976,-74.64 -29.52,-20.657 -61.235,-30.981 -95.145,-30.981 H 230.672 l 118.297,441.5 h 122.82 c 34.18,0 60.434,-10.332 78.746,-30.984 18.309,-20.657 23.602,-45.418 15.863,-74.289 L 504.609,285.535" style="fill:currentColor;fill-opacity:1;fill-rule:nonzero;stroke:none" id="path14" />
      <path d="m 804.613,514.734 c 3.082,11.496 1.496,20.774 -4.746,27.817 -6.246,7.039 -16.129,10.558 -29.633,10.558 h -47.14 L 685.266,411.93 h 47.14 c 12.407,0 23.957,3.75 34.653,11.265 10.699,7.508 17.461,16.547 20.289,27.11 z m -18.238,106.325 c 38.043,0 65.633,-10.211 82.77,-30.629 15.726,-19.485 19.543,-44.36 11.429,-74.637 L 863.402,451.715 C 855.605,422.605 837.008,397.723 807.637,377.074 778.25,356.418 746.605,346.09 712.699,346.09 H 667.625 L 623.098,179.914 h -78.16 l 118.207,441.145 h 123.23" style="fill:currentColor;fill-opacity:1;fill-rule:nonzero;stroke:none" id="path16" />
      <path d="m 1003.1,554.168 h -83.12 l 17.922,66.891 h 243.988 l -17.93,-66.891 h -82.7 L 980.977,179.914 H 902.82 l 100.28,374.254" style="fill:currentColor;fill-opacity:1;fill-rule:nonzero;stroke:none" id="path18" />
      <path d="m 1010.57,689.422 h 51.18 C 1031.03,764.723 945.605,857 857.113,883.746 c -15.675,4.734 -31.097,7.137 -45.843,7.141 -32.45,0 -61.696,-11.793 -84.575,-34.106 -14.379,-14.027 -22.3,-21.754 -34.129,-21.754 -10.394,0 -19.8,6.149 -38.55,18.407 -18.664,12.203 -44.223,28.91 -79.922,42.843 -13.848,5.403 -27.621,8.141 -40.942,8.141 -16.984,0 -33.179,-4.43 -48.132,-13.164 -57.813,-33.75 -86.754,-125.961 -101.075,-201.832 h 47.391 c 17.152,85.281 44.434,142.535 77.144,161.633 5.063,2.957 13.122,6.886 24.602,6.886 7.453,0 15.563,-1.691 24.098,-5.027 31.195,-12.172 52.539,-26.125 71.375,-38.437 20.761,-13.575 40.375,-26.399 62.98,-26.399 21.106,0 43.235,11.574 67.653,35.379 14.292,13.941 31.75,21.016 51.882,21.016 10.043,0 21,-1.778 32.578,-5.282 67.024,-20.253 136.196,-90.851 166.922,-149.769" style="fill:currentColor;fill-opacity:1;fill-rule:nonzero;stroke:none" id="path20" />
      <path d="m 1238.12,610.316 -12.22,-45.605 c 95.78,-7.18 156.42,-55.285 155.59,-124.684 C 1380.6,365.805 1312.72,285.676 1199.9,225.684 1098.4,171.707 911.094,107.363 595.16,107.363 l -9.758,0.024 c -375.218,1.222 -459.488,79.394 -478.3,112.949 -10.9457,19.519 -9.6723,40.656 3.781,62.824 19.015,31.328 60.262,60.352 108.441,76.535 l 14.629,52.016 C 162.855,394.934 100.027,354.984 71.0938,307.309 48.9336,270.793 47.3047,231.824 66.5039,197.578 101.113,135.859 219.203,62.0352 585.262,60.8438 l 8.004,-0.0157 c 609.134,0.0078 832.944,226.4449 834.764,378.6449 0.85,70.894 -48.58,157.222 -189.91,170.843" style="fill:currentColor;fill-opacity:1;fill-rule:nonzero;stroke:none" id="path22" />
      <path d="m 178.688,705.621 27.546,-84.777 h 89.141 l -72.117,-52.399 27.547,-84.777 -72.117,52.398 -72.118,-52.398 27.547,84.777 L 62,620.844 h 89.145 l 27.543,84.777" style="fill:currentColor;fill-opacity:1;fill-rule:nonzero;stroke:none" id="path24" />
    </g>
  </g>
</svg>