<?xml version="1.0" standalone="no"?>
<!DOCTYPE svg PUBLIC "-//W3C//DTD SVG 20010904//EN"
 "http://www.w3.org/TR/2001/REC-SVG-20010904/DTD/svg10.dtd">
<svg version="1.0" xmlns="http://www.w3.org/2000/svg"
 width="1184.000000pt" height="395.000000pt" viewBox="0 0 1184.000000 395.000000"
 preserveAspectRatio="xMidYMid meet">

<g transform="translate(0.000000,395.000000) scale(0.100000,-0.100000)"
fill="#000000" stroke="none">
<path fill="currentColor" stroke="currentColor" d="M2105 3752 c-226 -78 -388 -340 -484 -784 l-19 -88 97 0 97 0 22 93
c33 140 68 242 122 352 87 180 190 264 307 252 67 -7 200 -70 363 -172 69 -43
150 -87 180 -98 110 -39 222 -5 346 106 91 80 150 107 237 107 91 0 144 -14
253 -66 199 -95 420 -301 548 -513 l37 -61 105 0 104 0 -15 38 c-52 125 -224
355 -356 474 -231 210 -458 318 -665 318 -154 0 -254 -42 -381 -161 -68 -63
-108 -78 -157 -59 -17 6 -84 45 -150 87 -273 173 -447 225 -591 175z"/>
<path fill="currentColor" stroke="currentColor" d="M1240 1793 c-117 -439 -228 -854 -246 -921 l-33 -124 317 4 c316 4
317 4 397 31 177 62 326 184 389 318 23 50 80 243 171 584 127 475 136 515
133 585 -4 94 -33 154 -105 220 -98 90 -119 94 -489 98 l-320 3 -214 -798z
m717 506 c39 -15 81 -57 88 -89 4 -19 -37 -189 -130 -537 -150 -560 -151 -564
-241 -615 -51 -28 -54 -29 -181 -26 l-130 3 170 638 171 637 112 0 c62 0 125
-5 141 -11z"/>
<path fill="currentColor" stroke="currentColor" d="M2760 2584 c0 -8 -480 -1804 -487 -1821 -4 -10 31 -13 159 -13 l164
0 82 308 c45 169 87 324 93 345 l10 37 97 0 c263 1 417 57 573 210 96 95 125
152 185 375 57 213 61 295 20 379 -45 91 -123 146 -245 172 -48 10 -146 14
-358 14 -161 0 -293 -3 -293 -6z m509 -284 c46 -13 79 -46 87 -85 6 -33 -65
-325 -91 -375 -20 -38 -65 -76 -115 -99 -37 -17 -66 -21 -167 -21 -68 0 -123
3 -123 8 0 4 34 136 77 295 l76 287 111 0 c61 0 126 -4 145 -10z"/>
<path fill="currentColor" stroke="currentColor" d="M3905 2578 c-11 -32 -65 -244 -65 -255 0 -10 41 -13 170 -13 94 0
170 -1 170 -2 -1 -2 -94 -352 -209 -778 l-208 -775 160 -3 c88 -1 161 -1 163
0 1 2 96 353 211 781 l208 777 172 0 172 0 10 38 c6 20 22 80 36 132 14 52 25
98 25 103 0 4 -227 7 -505 7 -396 0 -507 -3 -510 -12z"/>
<path fill="currentColor" stroke="currentColor" d="M5156 2529 c-3 -8 -14 -48 -25 -89 -21 -81 -18 -90 31 -90 38 0 153
-26 218 -48 179 -62 306 -178 356 -324 27 -77 25 -203 -5 -298 -142 -465 -794
-880 -1696 -1079 -274 -60 -547 -100 -915 -133 -199 -18 -1100 -18 -1310 0
-383 33 -674 84 -897 157 -463 152 -610 374 -408 616 61 72 163 147 275 201
58 28 112 54 120 58 14 7 74 199 65 208 -16 16 -260 -80 -365 -144 -447 -270
-502 -683 -126 -943 283 -195 756 -308 1473 -352 394 -24 1156 -3 1523 41 978
119 1715 408 2140 839 122 123 194 224 254 354 65 139 80 203 80 337 -1 142
-29 239 -102 351 -76 115 -167 190 -315 259 -134 62 -361 110 -371 79z"/>
</g>
</svg>
