<?xml version="1.0" standalone="no"?>
<!DOCTYPE svg PUBLIC "-//W3C//DTD SVG 20010904//EN"
 "http://www.w3.org/TR/2001/REC-SVG-20010904/DTD/svg10.dtd">
<svg version="1.0" xmlns="http://www.w3.org/2000/svg"
 width="85.000000pt" height="85.000000pt" viewBox="0 0 85.000000 85.000000"
 preserveAspectRatio="xMidYMid meet">

<g transform="translate(0.000000,85.000000) scale(0.100000,-0.100000)"
fill="#000000" stroke="none">
<path fill="currentColor" stroke="currentColor" d="M265 643 c-20 -19 -35 -56 -35 -84 0 -32 15 -21 30 23 21 59 37 66
93 38 43 -22 47 -22 71 -7 43 28 72 21 120 -28 25 -25 47 -45 50 -45 30 0 -47
88 -93 107 -31 13 -38 13 -73 -3 -37 -17 -41 -17 -68 -1 -36 22 -74 22 -95 0z"/>
<path fill="currentColor" stroke="currentColor" d="M211 500 c-9 -5 -47 -130 -67 -222 -6 -27 -5 -28 31 -28 59 0 103 26
115 69 36 119 40 143 30 162 -6 10 -16 20 -23 20 -56 5 -77 5 -86 -1z m65 -44
c6 -16 -23 -136 -38 -153 -10 -12 -48 -18 -48 -8 0 9 42 160 47 168 7 12 33 8
39 -7z"/>
<path fill="currentColor" stroke="currentColor" d="M380 490 c-5 -10 -14 -37 -19 -61 -6 -24 -19 -74 -30 -111 l-20 -68
24 0 c19 0 25 8 35 50 11 47 14 50 44 50 21 0 40 8 53 23 24 27 44 82 37 102
-12 30 -110 42 -124 15z m75 -31 c11 -17 -4 -58 -25 -69 -31 -16 -38 -5 -27
40 11 39 37 54 52 29z"/>
<path fill="currentColor" stroke="currentColor" d="M534 501 c-11 -12 -2 -31 16 -31 25 0 25 5 -5 -109 -30 -114 -30
-111 -6 -111 15 0 24 19 48 107 26 94 33 108 54 113 13 3 25 12 27 20 2 12
-11 15 -64 15 -36 0 -68 -2 -70 -4z"/>
<path fill="currentColor" stroke="currentColor" d="M700 481 c0 -5 13 -11 30 -14 44 -9 65 -47 50 -91 -32 -98 -215 -166
-444 -166 -207 1 -317 50 -255 116 12 13 28 24 36 24 7 0 13 7 13 15 0 20 -6
19 -46 -6 -34 -20 -49 -51 -42 -85 5 -26 47 -53 108 -69 70 -19 291 -20 385
-2 205 39 327 164 250 255 -19 23 -35 32 -56 32 -16 0 -29 -4 -29 -9z"/>
</g>
</svg>
